<mxfile host="Electron" agent="Mozilla/5.0 (Macintosh; Intel Mac OS X 10_15_7) AppleWebKit/537.36 (KHTML, like Gecko) draw.io/26.2.2 Chrome/134.0.6998.178 Electron/35.1.2 Safari/537.36" version="26.2.2">
  <diagram name="Strona-1" id="5VcVv-ho94st5EuwQphE">
    <mxGraphModel dx="836" dy="1075" grid="1" gridSize="10" guides="1" tooltips="1" connect="1" arrows="1" fold="1" page="1" pageScale="1" pageWidth="827" pageHeight="1169" math="0" shadow="0">
      <root>
        <mxCell id="0" />
        <mxCell id="1" parent="0" />
        <mxCell id="WZ6RKhzQ7pxLnRV6cBqc-1" value="&lt;font style=&quot;font-size: 20px;&quot;&gt;&lt;b&gt;Integracja z systemem ERP&lt;/b&gt;&lt;/font&gt;" style="text;html=1;align=center;verticalAlign=middle;resizable=0;points=[];autosize=1;strokeColor=none;fillColor=none;" parent="1" vertex="1">
          <mxGeometry x="274" y="20" width="280" height="40" as="geometry" />
        </mxCell>
        <mxCell id="WZ6RKhzQ7pxLnRV6cBqc-2" value="&lt;font style=&quot;font-size: 18px;&quot;&gt;System: Integracja&amp;nbsp;&lt;/font&gt;" style="shape=umlFrame;whiteSpace=wrap;html=1;pointerEvents=0;width=126;height=70;" parent="1" vertex="1">
          <mxGeometry x="154" y="210" width="520" height="700" as="geometry" />
        </mxCell>
        <mxCell id="D8xWFVmpuPPxWXXYtobC-1" value="" style="edgeStyle=orthogonalEdgeStyle;rounded=0;orthogonalLoop=1;jettySize=auto;html=1;" parent="1" source="WZ6RKhzQ7pxLnRV6cBqc-3" target="WZ6RKhzQ7pxLnRV6cBqc-6" edge="1">
          <mxGeometry relative="1" as="geometry" />
        </mxCell>
        <mxCell id="WZ6RKhzQ7pxLnRV6cBqc-3" value="&lt;font style=&quot;font-size: 18px;&quot;&gt;System&lt;/font&gt;" style="ellipse;shape=umlEntity;whiteSpace=wrap;html=1;" parent="1" vertex="1">
          <mxGeometry x="366" y="300" width="96" height="90" as="geometry" />
        </mxCell>
        <mxCell id="WZ6RKhzQ7pxLnRV6cBqc-6" value="&lt;font style=&quot;font-size: 18px;&quot;&gt;Integracja z systemem ERP&lt;/font&gt;" style="ellipse;whiteSpace=wrap;html=1;" parent="1" vertex="1">
          <mxGeometry x="324" y="460" width="180" height="120" as="geometry" />
        </mxCell>
        <mxCell id="WZ6RKhzQ7pxLnRV6cBqc-7" value="&lt;font style=&quot;font-size: 18px;&quot;&gt;Wymiana danych o zamÃ³wieniach&lt;/font&gt;" style="ellipse;whiteSpace=wrap;html=1;" parent="1" vertex="1">
          <mxGeometry x="454" y="645" width="190" height="125" as="geometry" />
        </mxCell>
        <mxCell id="WZ6RKhzQ7pxLnRV6cBqc-8" value="&lt;font style=&quot;font-size: 18px;&quot;&gt;Wymiana danych o produktach&lt;/font&gt;" style="ellipse;whiteSpace=wrap;html=1;" parent="1" vertex="1">
          <mxGeometry x="200" y="645" width="196" height="125" as="geometry" />
        </mxCell>
        <mxCell id="D8xWFVmpuPPxWXXYtobC-2" value="&lt;font style=&quot;font-size: 16px;&quot;&gt;&amp;lt;&amp;lt;include&amp;gt;&amp;gt;&lt;/font&gt;" style="endArrow=open;endSize=12;dashed=1;html=1;rounded=0;exitX=1;exitY=1;exitDx=0;exitDy=0;" parent="1" source="WZ6RKhzQ7pxLnRV6cBqc-6" target="WZ6RKhzQ7pxLnRV6cBqc-7" edge="1">
          <mxGeometry width="160" relative="1" as="geometry">
            <mxPoint x="320" y="570" as="sourcePoint" />
            <mxPoint x="480" y="570" as="targetPoint" />
          </mxGeometry>
        </mxCell>
        <mxCell id="D8xWFVmpuPPxWXXYtobC-3" value="&lt;font style=&quot;font-size: 16px;&quot;&gt;&amp;lt;&amp;lt;include&amp;gt;&amp;gt;&lt;/font&gt;" style="endArrow=open;endSize=12;dashed=1;html=1;rounded=0;exitX=0;exitY=1;exitDx=0;exitDy=0;" parent="1" source="WZ6RKhzQ7pxLnRV6cBqc-6" target="WZ6RKhzQ7pxLnRV6cBqc-8" edge="1">
          <mxGeometry x="0.0002" width="160" relative="1" as="geometry">
            <mxPoint x="320" y="570" as="sourcePoint" />
            <mxPoint x="480" y="570" as="targetPoint" />
            <mxPoint as="offset" />
          </mxGeometry>
        </mxCell>
      </root>
    </mxGraphModel>
  </diagram>
</mxfile>
